<?xml version="1.0" encoding="utf-8"?>
<!-- Generator: Adobe Illustrator 24.1.0, SVG Export Plug-In . SVG Version: 6.00 Build 0)  -->
<svg version="1.1" id="Isolation_Mode" xmlns="http://www.w3.org/2000/svg" xmlns:xlink="http://www.w3.org/1999/xlink" x="0px"
	 y="0px" viewBox="0 0 186.91 53.48" style="enable-background:new 0 0 186.91 53.48;" xml:space="preserve">
<style type="text/css">
	.st0{fill:#B69A81;}
	.st1{fill:#FFFFFF;}
</style>
<g>
	<path class="st1" d="M164.05,17.76v17.11c0,5.88-1.88,6.97-3.62,6.97c-2.94,0-4.14-1.36-4.18-1.43l-0.6,0.79
		c0,0,1.2,1.66,5.24,1.66c4.45,0,7.46-1.73,7.46-7.99V17.76H164.05z"/>
	<path class="st1" d="M147.44,39.73c-0.99,0-1.8,0.7-1.8,1.78c0,0.96,0.7,1.78,1.8,1.78c1.26,0,1.77-1.02,1.77-1.78
		C149.21,40.57,148.49,39.73,147.44,39.73"/>
	<path class="st1" d="M141.12,39.73c-0.99,0-1.8,0.7-1.8,1.78c0,0.96,0.7,1.78,1.8,1.78c1.26,0,1.77-1.02,1.77-1.78
		C142.89,40.57,142.16,39.73,141.12,39.73"/>
	<path class="st1" d="M25.6,17.18c1.26,0,1.77-1.02,1.77-1.78c0-0.93-0.72-1.78-1.77-1.78c-0.99,0-1.8,0.7-1.8,1.78
		C23.8,16.37,24.5,17.18,25.6,17.18"/>
	<path class="st1" d="M33.79,33.02c0,6.26-2.49,8.55-6.63,8.55c-4.52,0-7.31-2.56-7.31-8.21v-0.34l0.04-3.35h-1.32v4.22
		c0,5.35,2.83,8.97,9.76,8.97c6.1,0,9.76-3.43,9.76-8.97V17.76h-4.3V33.02z"/>
	<path class="st1" d="M108.53,10.06c-0.99,0-1.8,0.7-1.8,1.78c0,0.96,0.7,1.78,1.8,1.78c1.26,0,1.77-1.02,1.77-1.78
		C110.3,10.9,109.57,10.06,108.53,10.06"/>
	<path class="st1" d="M63.08,32.93h-6.61c-0.58,0-1.14-0.22-1.53-0.64c-1.07-1.12-1.54-3.07-1.54-5.94c0-5.13,1.43-7.88,4.9-7.88
		c3.54,0,4.79,2.45,4.79,8.37C63.08,27.3,63.08,31.15,63.08,32.93 M99.81,22.66c-0.09,0.19-0.19,0.38-0.27,0.57
		c-0.18,0.44-0.32,0.92-0.43,1.42c-0.09,0.47-0.13,0.9-0.13,1.31c0,2.98,1.85,5.59,4.67,6.97H67.29c0.13-0.76,0.23-1.55,0.28-2.39
		c0.04-0.49,0.11-1.54,0.11-2.49c0-6.75-3.32-10.29-9.38-10.29c-6.03,0-9.5,4.07-9.5,8.74c0,2.95,0.76,4.84,2.41,6.23
		c0,0,1.94,1.62,3.31,1.68h8.7c-0.79,6.05-3.75,8.1-6.89,8.1c-2.98,0-4.82-1.96-4.82-1.96l-0.64,0.72c0,0,1.73,2.15,5.99,2.15
		c4.13,0,8.51-2.95,10.1-9.01h39.63v-0.28v-0.11v-0.18v-0.38c-2.37-0.62-3.43-2.82-3.43-7.11c0-4.48,1.12-7.04,3.43-7.8v-0.48
		C103.59,18.54,101.06,20.24,99.81,22.66"/>
	<path class="st1" d="M146.36,32.93h-32.99c2.83-1.38,4.67-3.99,4.67-6.97c0-0.41-0.04-0.83-0.13-1.31
		c-0.11-0.51-0.25-0.98-0.42-1.42c-0.08-0.2-0.18-0.39-0.27-0.58c-1.26-2.42-3.78-4.12-6.78-4.58v0.48c2.31,0.77,3.43,3.32,3.43,7.8
		c0,4.29-1.06,6.5-3.43,7.11v0.38v0.18v0.11v0.28h39.57v-0.28v-0.11V17.76h-3.65V32.93z"/>
</g>
</svg>
